<svg xmlns="http://www.w3.org/2000/svg" viewBox="0 0 480.14000000000004 395" width="480.14000000000004" height="395" style="--bg:#1e1e2e;--fg:#cdd6f4;--line:#89b4fa;--accent:#89b4fa;--muted:#bac2de;--surface:#313244;--border:#f5c2e7;background:var(--bg)">
<style>
  @import url('https://fonts.googleapis.com/css2?family=Inter:wght@400;500;600;700&amp;display=swap');
  text { font-family: 'Inter', system-ui, sans-serif; }
  svg {
    /* Derived from --bg and --fg (overridable via --line, --accent, etc.) */
    --_text:          var(--fg);
    --_text-sec:      var(--muted, color-mix(in srgb, var(--fg) 60%, var(--bg)));
    --_text-muted:    var(--muted, color-mix(in srgb, var(--fg) 40%, var(--bg)));
    --_text-faint:    color-mix(in srgb, var(--fg) 25%, var(--bg));
    --_line:          var(--line, color-mix(in srgb, var(--fg) 30%, var(--bg)));
    --_arrow:         var(--accent, color-mix(in srgb, var(--fg) 50%, var(--bg)));
    --_node-fill:     var(--surface, color-mix(in srgb, var(--fg) 3%, var(--bg)));
    --_node-stroke:   var(--border, color-mix(in srgb, var(--fg) 20%, var(--bg)));
    --_group-fill:    var(--bg);
    --_group-hdr:     color-mix(in srgb, var(--fg) 5%, var(--bg));
    --_inner-stroke:  color-mix(in srgb, var(--fg) 12%, var(--bg));
    --_key-badge:     color-mix(in srgb, var(--fg) 10%, var(--bg));
  }
</style>
<defs>
  <marker id="arrowhead" markerWidth="8" markerHeight="4.8" refX="8" refY="2.4" orient="auto">
    <polygon points="0 0, 8 2.4, 0 4.8" fill="var(--_arrow)" />
  </marker>
  <marker id="arrowhead-start" markerWidth="8" markerHeight="4.8" refX="0" refY="2.4" orient="auto-start-reverse">
    <polygon points="8 0, 0 2.4, 8 4.8" fill="var(--_arrow)" />
  </marker>
</defs>
<polyline points="221.14000000000004,76 221.14000000000004,104.5 68.75,104.5 68.75,337 40,337" fill="none" stroke="var(--_line)" stroke-width="0.75" marker-end="url(#arrowhead)" />
<polyline points="221.14000000000004,76 221.14000000000004,104.5 294.19000000000005,104.5 294.19000000000005,133" fill="none" stroke="var(--_line)" stroke-width="0.75" marker-end="url(#arrowhead)" />
<polyline points="294.19000000000005,169 294.19000000000005,197.5 373.53000000000003,197.5 373.53000000000003,337 336.64000000000004,337" fill="none" stroke="var(--_line)" stroke-width="0.75" marker-end="url(#arrowhead)" />
<polyline points="294.19000000000005,169 294.19000000000005,197.5 214.85000000000002,197.5 214.85000000000002,226" fill="none" stroke="var(--_line)" stroke-width="0.75" marker-end="url(#arrowhead)" />
<polyline points="214.85000000000002,262 214.85000000000002,337 243.60000000000002,337" fill="none" stroke="var(--_line)" stroke-width="0.75" marker-end="url(#arrowhead)" />
<polyline points="214.85000000000002,262 214.85000000000002,290.5 403.25,290.5 403.25,337 440.14000000000004,337" fill="none" stroke="var(--_line)" stroke-width="0.75" marker-end="url(#arrowhead)" />
<rect x="52.17" y="184" width="33.16" height="27" rx="4" ry="4" fill="var(--bg)" stroke="var(--_inner-stroke)" stroke-width="0.5" />
<text x="68.75" y="197.5" text-anchor="middle" dy="0.35em" font-size="11" font-weight="400" fill="var(--_text-muted)">YES</text>
<rect x="280.47" y="91" width="27.44" height="27" rx="4" ry="4" fill="var(--bg)" stroke="var(--_inner-stroke)" stroke-width="0.5" />
<text x="294.19000000000005" y="104.5" text-anchor="middle" dy="0.35em" font-size="11" font-weight="400" fill="var(--_text-muted)">NO</text>
<rect x="356.95000000000005" y="230.5" width="33.16" height="27" rx="4" ry="4" fill="var(--bg)" stroke="var(--_inner-stroke)" stroke-width="0.5" />
<text x="373.53000000000003" y="244" text-anchor="middle" dy="0.35em" font-size="11" font-weight="400" fill="var(--_text-muted)">YES</text>
<rect x="201.13000000000002" y="184" width="27.44" height="27" rx="4" ry="4" fill="var(--bg)" stroke="var(--_inner-stroke)" stroke-width="0.5" />
<text x="214.85000000000002" y="197.5" text-anchor="middle" dy="0.35em" font-size="11" font-weight="400" fill="var(--_text-muted)">NO</text>
<rect x="198.27000000000004" y="277" width="33.16" height="27" rx="4" ry="4" fill="var(--bg)" stroke="var(--_inner-stroke)" stroke-width="0.5" />
<text x="214.85000000000002" y="290.5" text-anchor="middle" dy="0.35em" font-size="11" font-weight="400" fill="var(--_text-muted)">YES</text>
<rect x="389.53" y="277" width="27.44" height="27" rx="4" ry="4" fill="var(--bg)" stroke="var(--_inner-stroke)" stroke-width="0.5" />
<text x="403.25" y="290.5" text-anchor="middle" dy="0.35em" font-size="11" font-weight="400" fill="var(--_text-muted)">NO</text>
<polygon points="81.01500000000004,40 361.26500000000004,40 370.26500000000004,58 361.26500000000004,76 81.01500000000004,76 72.01500000000004,58" fill="var(--_node-fill)" stroke="var(--_node-stroke)" stroke-width="0.75" />
<rect x="40" y="319" width="203.60000000000002" height="36" rx="0" ry="0" fill="#fab387" stroke="var(--_node-stroke)" stroke-width="0.75" />
<polygon points="200.54000000000005,133 387.84000000000003,133 396.84000000000003,151 387.84000000000003,169 200.54000000000005,169 191.54000000000005,151" fill="var(--_node-fill)" stroke="var(--_node-stroke)" stroke-width="0.75" />
<rect x="336.64000000000004" y="319" width="103.5" height="36" rx="0" ry="0" fill="#89b4fa" stroke="var(--_node-stroke)" stroke-width="0.75" />
<polygon points="99.75000000000001,226 329.95000000000005,226 338.95000000000005,244 329.95000000000005,262 99.75000000000001,262 90.75000000000001,244" fill="var(--_node-fill)" stroke="var(--_node-stroke)" stroke-width="0.75" />
<text x="221.14000000000004" y="58" text-anchor="middle" dy="0.35em" font-size="13" font-weight="500" fill="var(--_text)">&quot;Swap implementations per profile?&quot;</text>
<text x="141.8" y="337" text-anchor="middle" dy="0.35em" font-size="13" font-weight="500" fill="var(--_text)">&quot;Port + @adapter.for_()&quot;</text>
<text x="294.19000000000005" y="151" text-anchor="middle" dy="0.35em" font-size="13" font-weight="500" fill="var(--_text)">&quot;Core business logic?&quot;</text>
<text x="388.39000000000004" y="337" text-anchor="middle" dy="0.35em" font-size="13" font-weight="500" fill="var(--_text)">&quot;@service&quot;</text>
<text x="214.85000000000002" y="244" text-anchor="middle" dy="0.35em" font-size="13" font-weight="500" fill="var(--_text)">&quot;Talks to external systems?&quot;</text>
</svg>
