<svg xmlns="http://www.w3.org/2000/svg" viewBox="0 0 537.4375 395" width="537.4375" height="395" style="--bg:#1e1e2e;--fg:#cdd6f4;--line:#89b4fa;--accent:#89b4fa;--muted:#a6adc8;--surface:#313244;--border:#f5c2e7;background:var(--bg)">
<style>
  @import url('https://fonts.googleapis.com/css2?family=Inter:wght@400;500;600;700&amp;display=swap');
  text { font-family: 'Inter', system-ui, sans-serif; }
  svg {
    /* Derived from --bg and --fg (overridable via --line, --accent, etc.) */
    --_text:          var(--fg);
    --_text-sec:      var(--muted, color-mix(in srgb, var(--fg) 60%, var(--bg)));
    --_text-muted:    var(--muted, color-mix(in srgb, var(--fg) 40%, var(--bg)));
    --_text-faint:    color-mix(in srgb, var(--fg) 25%, var(--bg));
    --_line:          var(--line, color-mix(in srgb, var(--fg) 30%, var(--bg)));
    --_arrow:         var(--accent, color-mix(in srgb, var(--fg) 50%, var(--bg)));
    --_node-fill:     var(--surface, color-mix(in srgb, var(--fg) 3%, var(--bg)));
    --_node-stroke:   var(--border, color-mix(in srgb, var(--fg) 20%, var(--bg)));
    --_group-fill:    var(--bg);
    --_group-hdr:     color-mix(in srgb, var(--fg) 5%, var(--bg));
    --_inner-stroke:  color-mix(in srgb, var(--fg) 12%, var(--bg));
    --_key-badge:     color-mix(in srgb, var(--fg) 10%, var(--bg));
  }
</style>
<defs>
  <marker id="arrowhead" markerWidth="8" markerHeight="4.8" refX="8" refY="2.4" orient="auto">
    <polygon points="0 0, 8 2.4, 0 4.8" fill="var(--_arrow)" />
  </marker>
  <marker id="arrowhead-start" markerWidth="8" markerHeight="4.8" refX="0" refY="2.4" orient="auto-start-reverse">
    <polygon points="8 0, 0 2.4, 8 4.8" fill="var(--_arrow)" />
  </marker>
</defs>
<polyline points="249.90000000000003,76 249.90000000000003,104.5 97.50999999999999,104.5 97.50999999999999,337 43.735,337" fill="none" stroke="var(--_line)" stroke-width="0.75" marker-end="url(#arrowhead)" />
<polyline points="249.90000000000003,76 249.90000000000003,104.5 322.95000000000005,104.5 322.95000000000005,133" fill="none" stroke="var(--_line)" stroke-width="0.75" marker-end="url(#arrowhead)" />
<polyline points="322.95000000000005,169 322.95000000000005,197.5 402.29,197.5 402.29,337 365.33750000000003,337" fill="none" stroke="var(--_line)" stroke-width="0.75" marker-end="url(#arrowhead)" />
<polyline points="322.95000000000005,169 322.95000000000005,197.5 243.61,197.5 243.61,226" fill="none" stroke="var(--_line)" stroke-width="0.75" marker-end="url(#arrowhead)" />
<polyline points="243.61,262 243.61,337 297.385,337" fill="none" stroke="var(--_line)" stroke-width="0.75" marker-end="url(#arrowhead)" />
<polyline points="243.61,262 243.61,290.5 446.2475,290.5 446.2475,337 497.43750000000006,337" fill="none" stroke="var(--_line)" stroke-width="0.75" marker-end="url(#arrowhead)" />
<rect x="80.92999999999999" y="184" width="33.16" height="27" rx="4" ry="4" fill="var(--bg)" stroke="var(--_inner-stroke)" stroke-width="0.5" />
<text x="97.50999999999999" y="197.5" text-anchor="middle" dy="0.35em" font-size="11" font-weight="400" fill="var(--_text-muted)">YES</text>
<rect x="309.23" y="91" width="27.44" height="27" rx="4" ry="4" fill="var(--bg)" stroke="var(--_inner-stroke)" stroke-width="0.5" />
<text x="322.95000000000005" y="104.5" text-anchor="middle" dy="0.35em" font-size="11" font-weight="400" fill="var(--_text-muted)">NO</text>
<rect x="385.71000000000004" y="230.5" width="33.16" height="27" rx="4" ry="4" fill="var(--bg)" stroke="var(--_inner-stroke)" stroke-width="0.5" />
<text x="402.29" y="244" text-anchor="middle" dy="0.35em" font-size="11" font-weight="400" fill="var(--_text-muted)">YES</text>
<rect x="229.89000000000001" y="184" width="27.44" height="27" rx="4" ry="4" fill="var(--bg)" stroke="var(--_inner-stroke)" stroke-width="0.5" />
<text x="243.61" y="197.5" text-anchor="middle" dy="0.35em" font-size="11" font-weight="400" fill="var(--_text-muted)">NO</text>
<rect x="227.03000000000003" y="277" width="33.16" height="27" rx="4" ry="4" fill="var(--bg)" stroke="var(--_inner-stroke)" stroke-width="0.5" />
<text x="243.61" y="290.5" text-anchor="middle" dy="0.35em" font-size="11" font-weight="400" fill="var(--_text-muted)">YES</text>
<rect x="432.5275" y="277" width="27.44" height="27" rx="4" ry="4" fill="var(--bg)" stroke="var(--_inner-stroke)" stroke-width="0.5" />
<text x="446.2475" y="290.5" text-anchor="middle" dy="0.35em" font-size="11" font-weight="400" fill="var(--_text-muted)">NO</text>
<polygon points="49.00000000000003,40 450.80000000000007,40 459.80000000000007,58 450.80000000000007,76 49.00000000000003,76 40.00000000000003,58" fill="var(--_node-fill)" stroke="var(--_node-stroke)" stroke-width="0.75" />
<rect x="43.735" y="319" width="253.65" height="36" rx="0" ry="0" fill="#fab387" stroke="var(--_node-stroke)" stroke-width="0.75" />
<polygon points="229.30000000000004,133 416.6,133 425.6,151 416.6,169 229.30000000000004,169 220.30000000000004,151" fill="var(--_node-fill)" stroke="var(--_node-stroke)" stroke-width="0.75" />
<rect x="365.33750000000003" y="319" width="132.10000000000002" height="36" rx="0" ry="0" fill="#89b4fa" stroke="var(--_node-stroke)" stroke-width="0.75" />
<polygon points="128.51,226 358.71000000000004,226 367.71000000000004,244 358.71000000000004,262 128.51,262 119.51,244" fill="var(--_node-fill)" stroke="var(--_node-stroke)" stroke-width="0.75" />
<text x="249.90000000000003" y="58" text-anchor="middle" dy="0.35em" font-size="13" font-weight="500" fill="var(--_text)">&quot;Need to swap implementations&lt;br/&gt;based on profile?&quot;</text>
<text x="170.56" y="337" text-anchor="middle" dy="0.35em" font-size="13" font-weight="500" fill="var(--_text)">&quot;Define Port + @adapter.for_()&quot;</text>
<text x="322.95000000000005" y="151" text-anchor="middle" dy="0.35em" font-size="13" font-weight="500" fill="var(--_text)">&quot;Core business logic?&quot;</text>
<text x="431.38750000000005" y="337" text-anchor="middle" dy="0.35em" font-size="13" font-weight="500" fill="var(--_text)">&quot;Use @service&quot;</text>
<text x="243.61" y="244" text-anchor="middle" dy="0.35em" font-size="13" font-weight="500" fill="var(--_text)">&quot;Talks to external systems?&quot;</text>
</svg>
