<svg xmlns="http://www.w3.org/2000/svg" viewBox="0 0 1273.125 479" width="1273.125" height="479" style="--bg:#1e1e2e;--fg:#cdd6f4;--line:#89b4fa;--accent:#89b4fa;--muted:#a6adc8;--surface:#313244;--border:#f5c2e7;background:var(--bg)">
<style>
  @import url('https://fonts.googleapis.com/css2?family=Inter:wght@400;500;600;700&amp;display=swap');
  text { font-family: 'Inter', system-ui, sans-serif; }
  svg {
    /* Derived from --bg and --fg (overridable via --line, --accent, etc.) */
    --_text:          var(--fg);
    --_text-sec:      var(--muted, color-mix(in srgb, var(--fg) 60%, var(--bg)));
    --_text-muted:    var(--muted, color-mix(in srgb, var(--fg) 40%, var(--bg)));
    --_text-faint:    color-mix(in srgb, var(--fg) 25%, var(--bg));
    --_line:          var(--line, color-mix(in srgb, var(--fg) 30%, var(--bg)));
    --_arrow:         var(--accent, color-mix(in srgb, var(--fg) 50%, var(--bg)));
    --_node-fill:     var(--surface, color-mix(in srgb, var(--fg) 3%, var(--bg)));
    --_node-stroke:   var(--border, color-mix(in srgb, var(--fg) 20%, var(--bg)));
    --_group-fill:    var(--bg);
    --_group-hdr:     color-mix(in srgb, var(--fg) 5%, var(--bg));
    --_inner-stroke:  color-mix(in srgb, var(--fg) 12%, var(--bg));
    --_key-badge:     color-mix(in srgb, var(--fg) 10%, var(--bg));
  }
</style>
<defs>
  <marker id="arrowhead" markerWidth="8" markerHeight="4.8" refX="8" refY="2.4" orient="auto">
    <polygon points="0 0, 8 2.4, 0 4.8" fill="var(--_arrow)" />
  </marker>
  <marker id="arrowhead-start" markerWidth="8" markerHeight="4.8" refX="0" refY="2.4" orient="auto-start-reverse">
    <polygon points="8 0, 0 2.4, 8 4.8" fill="var(--_arrow)" />
  </marker>
</defs>
<rect x="40" y="40" width="1193.125" height="399" rx="0" ry="0" fill="var(--_group-fill)" stroke="var(--_node-stroke)" stroke-width="1" />
<rect x="40" y="40" width="1193.125" height="28" rx="0" ry="0" fill="var(--_group-hdr)" stroke="var(--_node-stroke)" stroke-width="1" />
<text x="52" y="54" dy="0.35em" font-size="12" font-weight="600" fill="var(--_text-sec)">&quot;Container (Application Lifetime)&quot;</text>
<rect x="60" y="307" width="525.25" height="112" rx="0" ry="0" fill="var(--_group-fill)" stroke="var(--_node-stroke)" stroke-width="1" />
<rect x="60" y="307" width="525.25" height="28" rx="0" ry="0" fill="var(--_group-hdr)" stroke="var(--_node-stroke)" stroke-width="1" />
<text x="72" y="321" dy="0.35em" font-size="12" font-weight="600" fill="var(--_text-sec)">&quot;Scope 1 (e.g., Request A)&quot;</text>
<rect x="605.25" y="307" width="607.875" height="112" rx="0" ry="0" fill="var(--_group-fill)" stroke="var(--_node-stroke)" stroke-width="1" />
<rect x="605.25" y="307" width="607.875" height="28" rx="0" ry="0" fill="var(--_group-hdr)" stroke="var(--_node-stroke)" stroke-width="1" />
<text x="617.25" y="321" dy="0.35em" font-size="12" font-weight="600" fill="var(--_text-sec)">&quot;Scope 2 (e.g., Request B)&quot;</text>
<polyline points="423.4625,163 423.4625,183 150.8375,183 150.8375,381 81.99999999999997,381" fill="none" stroke="var(--_line)" stroke-width="0.75" marker-end="url(#arrowhead)" />
<polyline points="423.4625,163 423.4625,183 696.0875,183 696.0875,381 709.875,381" fill="none" stroke="var(--_line)" stroke-width="0.75" marker-end="url(#arrowhead)" />
<polyline points="738.7125,163 738.7125,183 383.4625,183 383.4625,381 321.35,381" fill="none" stroke="var(--_line)" stroke-width="0.75" marker-end="url(#arrowhead)" />
<polyline points="738.7125,163 738.7125,183 1011.3375,183 1011.3375,381 949.2249999999999,381" fill="none" stroke="var(--_line)" stroke-width="0.75" marker-end="url(#arrowhead)" />
<rect x="303.78749999999997" y="123" width="239.35000000000002" height="33" fill="#e1f5fe" stroke="none" />
<line x1="303.78749999999997" y1="123" x2="303.78749999999997" y2="156" stroke="var(--_node-stroke)" stroke-width="0.75" />
<line x1="543.1375" y1="123" x2="543.1375" y2="156" stroke="var(--_node-stroke)" stroke-width="0.75" />
<ellipse cx="423.4625" cy="156" rx="119.67500000000001" ry="7" fill="#e1f5fe" stroke="var(--_node-stroke)" stroke-width="0.75" />
<ellipse cx="423.4625" cy="123" rx="119.67500000000001" ry="7" fill="#e1f5fe" stroke="var(--_node-stroke)" stroke-width="0.75" />
<rect x="615.4625" y="123" width="246.50000000000003" height="33" fill="#e1f5fe" stroke="none" />
<line x1="615.4625" y1="123" x2="615.4625" y2="156" stroke="var(--_node-stroke)" stroke-width="0.75" />
<line x1="861.9625" y1="123" x2="861.9625" y2="156" stroke="var(--_node-stroke)" stroke-width="0.75" />
<ellipse cx="738.7125" cy="156" rx="123.25000000000001" ry="7" fill="#e1f5fe" stroke="var(--_node-stroke)" stroke-width="0.75" />
<ellipse cx="738.7125" cy="123" rx="123.25000000000001" ry="7" fill="#e1f5fe" stroke="var(--_node-stroke)" stroke-width="0.75" />
<rect x="81.99999999999997" y="363" width="239.35000000000002" height="36" rx="0" ry="0" fill="#fff3e0" stroke="var(--_node-stroke)" stroke-width="0.75" />
<rect x="709.875" y="363" width="239.35000000000002" height="36" rx="0" ry="0" fill="#fff3e0" stroke="var(--_node-stroke)" stroke-width="0.75" />
<rect x="345.34999999999997" y="363" width="217.9" height="36" rx="0" ry="0" fill="#fff3e0" stroke="var(--_node-stroke)" stroke-width="0.75" />
<rect x="973.2249999999999" y="363" width="217.9" height="36" rx="0" ry="0" fill="#fff3e0" stroke="var(--_node-stroke)" stroke-width="0.75" />
<text x="423.4625" y="139.5" text-anchor="middle" dy="0.35em" font-size="13" font-weight="500" fill="var(--_text)">&quot;UserService&lt;br/&gt;(singleton)&quot;</text>
<text x="738.7125" y="139.5" text-anchor="middle" dy="0.35em" font-size="13" font-weight="500" fill="var(--_text)">&quot;EmailService&lt;br/&gt;(singleton)&quot;</text>
<text x="201.67499999999998" y="381" text-anchor="middle" dy="0.35em" font-size="13" font-weight="500" fill="var(--_text)">&quot;RequestContext&lt;br/&gt;(scoped)&quot;</text>
<text x="829.55" y="381" text-anchor="middle" dy="0.35em" font-size="13" font-weight="500" fill="var(--_text)">&quot;RequestContext&lt;br/&gt;(scoped)&quot;</text>
<text x="454.29999999999995" y="381" text-anchor="middle" dy="0.35em" font-size="13" font-weight="500" fill="var(--_text)">&quot;AuditLogger&lt;br/&gt;(scoped)&quot;</text>
<text x="1082.175" y="381" text-anchor="middle" dy="0.35em" font-size="13" font-weight="500" fill="var(--_text)">&quot;AuditLogger&lt;br/&gt;(scoped)&quot;</text>
</svg>
