<svg xmlns="http://www.w3.org/2000/svg" viewBox="0 0 551.2 1045.8000000000002" width="551.2" height="1045.8000000000002" style="--bg:#1e1e2e;--fg:#cdd6f4;--line:#89b4fa;--accent:#89b4fa;--muted:#bac2de;--surface:#313244;--border:#f5c2e7;background:var(--bg)">
<style>
  @import url('https://fonts.googleapis.com/css2?family=Inter:wght@400;500;600;700&amp;display=swap');
  text { font-family: 'Inter', system-ui, sans-serif; }
  svg {
    /* Derived from --bg and --fg (overridable via --line, --accent, etc.) */
    --_text:          var(--fg);
    --_text-sec:      var(--muted, color-mix(in srgb, var(--fg) 60%, var(--bg)));
    --_text-muted:    var(--muted, color-mix(in srgb, var(--fg) 40%, var(--bg)));
    --_text-faint:    color-mix(in srgb, var(--fg) 25%, var(--bg));
    --_line:          var(--line, color-mix(in srgb, var(--fg) 30%, var(--bg)));
    --_arrow:         var(--accent, color-mix(in srgb, var(--fg) 50%, var(--bg)));
    --_node-fill:     var(--surface, color-mix(in srgb, var(--fg) 3%, var(--bg)));
    --_node-stroke:   var(--border, color-mix(in srgb, var(--fg) 20%, var(--bg)));
    --_group-fill:    var(--bg);
    --_group-hdr:     color-mix(in srgb, var(--fg) 5%, var(--bg));
    --_inner-stroke:  color-mix(in srgb, var(--fg) 12%, var(--bg));
    --_key-badge:     color-mix(in srgb, var(--fg) 10%, var(--bg));
  }
</style>
<defs>
  <marker id="arrowhead" markerWidth="8" markerHeight="4.8" refX="8" refY="2.4" orient="auto">
    <polygon points="0 0, 8 2.4, 0 4.8" fill="var(--_arrow)" />
  </marker>
  <marker id="arrowhead-start" markerWidth="8" markerHeight="4.8" refX="0" refY="2.4" orient="auto-start-reverse">
    <polygon points="8 0, 0 2.4, 8 4.8" fill="var(--_arrow)" />
  </marker>
</defs>
<polyline points="240.15,76 240.15,116" fill="none" stroke="var(--_line)" stroke-width="0.75" marker-end="url(#arrowhead)" />
<polyline points="193.5733326407646,268.4233326407646 193.5733326407646,343.5 127.5,343.5 127.5,467.8" fill="none" stroke="var(--_line)" stroke-width="0.75" marker-end="url(#arrowhead)" />
<polyline points="286.7266673592354,268.4233326407646 286.7266673592354,343.5 352.8,343.5 352.8,372" fill="none" stroke="var(--_line)" stroke-width="0.75" marker-end="url(#arrowhead)" />
<polyline points="311.40985512430694,558.209855124307 311.40985512430694,628.1 271.46,628.1 271.46,656.6" fill="none" stroke="var(--_line)" stroke-width="0.75" marker-end="url(#arrowhead)" />
<polyline points="401.1350393143735,551.2649606856265 401.1350393143735,628.1 457.865,628.1 457.865,987.8000000000001 511.20000000000005,987.8000000000001" fill="none" stroke="var(--_line)" stroke-width="0.75" marker-end="url(#arrowhead)" />
<polyline points="256.21772151898733,897.5577215189874 256.21772151898733,941.3000000000001 250.31,941.3000000000001 250.31,969.8000000000001" fill="none" stroke="var(--_line)" stroke-width="0.75" marker-end="url(#arrowhead)" />
<polyline points="317.80570555272544,866.4542944472746 317.80570555272544,941.3000000000001 360.235,941.3000000000001 360.235,987.8000000000001 371.95000000000005,987.8000000000001" fill="none" stroke="var(--_line)" stroke-width="0.75" marker-end="url(#arrowhead)" />
<rect x="110.92" y="330" width="33.16" height="27" rx="4" ry="4" fill="var(--bg)" stroke="var(--_inner-stroke)" stroke-width="0.5" />
<text x="127.5" y="343.5" text-anchor="middle" dy="0.35em" font-size="11" font-weight="400" fill="var(--_text-muted)">Yes</text>
<rect x="339.08" y="330" width="27.44" height="27" rx="4" ry="4" fill="var(--bg)" stroke="var(--_inner-stroke)" stroke-width="0.5" />
<text x="352.8" y="343.5" text-anchor="middle" dy="0.35em" font-size="11" font-weight="400" fill="var(--_text-muted)">No</text>
<rect x="257.73999999999995" y="614.6" width="27.44" height="27" rx="4" ry="4" fill="var(--bg)" stroke="var(--_inner-stroke)" stroke-width="0.5" />
<text x="271.46" y="628.1" text-anchor="middle" dy="0.35em" font-size="11" font-weight="400" fill="var(--_text-muted)">No</text>
<rect x="441.285" y="771.2" width="33.16" height="27" rx="4" ry="4" fill="var(--bg)" stroke="var(--_inner-stroke)" stroke-width="0.5" />
<text x="457.865" y="784.7" text-anchor="middle" dy="0.35em" font-size="11" font-weight="400" fill="var(--_text-muted)">Yes</text>
<rect x="236.59" y="927.8000000000001" width="27.44" height="27" rx="4" ry="4" fill="var(--bg)" stroke="var(--_inner-stroke)" stroke-width="0.5" />
<text x="250.31" y="941.3000000000001" text-anchor="middle" dy="0.35em" font-size="11" font-weight="400" fill="var(--_text-muted)">No</text>
<rect x="343.65500000000003" y="927.8000000000001" width="33.16" height="27" rx="4" ry="4" fill="var(--bg)" stroke="var(--_inner-stroke)" stroke-width="0.5" />
<text x="360.235" y="941.3000000000001" text-anchor="middle" dy="0.35em" font-size="11" font-weight="400" fill="var(--_text-muted)">Yes</text>
<rect x="177.675" y="40" width="124.95" height="36" rx="0" ry="0" fill="var(--_node-fill)" stroke="var(--_node-stroke)" stroke-width="0.75" />
<polygon points="240.15,116 339.65,215.5 240.15,315 140.65,215.5" fill="var(--_node-fill)" stroke="var(--_node-stroke)" stroke-width="0.75" />
<rect x="40" y="467.8" width="175" height="36" rx="0" ry="0" fill="#89b4fa" stroke="var(--_node-stroke)" stroke-width="0.75" />
<polygon points="352.8,372 466.6,485.8 352.8,599.6 239,485.8" fill="var(--_node-fill)" stroke="var(--_node-stroke)" stroke-width="0.75" />
<polygon points="271.46,656.6 399.56,784.7 271.46,912.8000000000001 143.35999999999996,784.7" fill="var(--_node-fill)" stroke="var(--_node-stroke)" stroke-width="0.75" />
<rect x="371.95000000000005" y="969.8000000000001" width="139.25" height="36" rx="0" ry="0" fill="#fab387" stroke="var(--_node-stroke)" stroke-width="0.75" />
<rect x="166.385" y="969.8000000000001" width="167.85000000000002" height="36" rx="0" ry="0" fill="#89b4fa" stroke="var(--_node-stroke)" stroke-width="0.75" />
<text x="240.15" y="58" text-anchor="middle" dy="0.35em" font-size="13" font-weight="500" fill="var(--_text)">New Component</text>
<text x="240.15" y="215.5" text-anchor="middle" dy="0.35em" font-size="13" font-weight="500" fill="var(--_text)">Core business logic?</text>
<text x="127.5" y="485.8" text-anchor="middle" dy="0.35em" font-size="13" font-weight="500" fill="#1e1e2e">&quot;@service SINGLETON&quot;</text>
<text x="352.8" y="485.8" text-anchor="middle" dy="0.35em" font-size="13" font-weight="500" fill="var(--_text)">Holds per-request state?</text>
<text x="271.46" y="784.7" text-anchor="middle" dy="0.35em" font-size="13" font-weight="500" fill="var(--_text)">Needs per-request resources?</text>
<text x="441.57500000000005" y="987.8000000000001" text-anchor="middle" dy="0.35em" font-size="13" font-weight="500" fill="#1e1e2e">&quot;Scope.REQUEST&quot;</text>
<text x="250.31" y="987.8000000000001" text-anchor="middle" dy="0.35em" font-size="13" font-weight="500" fill="#1e1e2e">&quot;SINGLETON default&quot;</text>
</svg>
