<svg xmlns="http://www.w3.org/2000/svg" viewBox="0 0 923.4375 479" width="923.4375" height="479" style="--bg:#1e1e2e;--fg:#cdd6f4;--line:#89b4fa;--accent:#89b4fa;--muted:#bac2de;--surface:#313244;--border:#f5c2e7;background:var(--bg)">
<style>
  @import url('https://fonts.googleapis.com/css2?family=Inter:wght@400;500;600;700&amp;display=swap');
  text { font-family: 'Inter', system-ui, sans-serif; }
  svg {
    /* Derived from --bg and --fg (overridable via --line, --accent, etc.) */
    --_text:          var(--fg);
    --_text-sec:      var(--muted, color-mix(in srgb, var(--fg) 60%, var(--bg)));
    --_text-muted:    var(--muted, color-mix(in srgb, var(--fg) 40%, var(--bg)));
    --_text-faint:    color-mix(in srgb, var(--fg) 25%, var(--bg));
    --_line:          var(--line, color-mix(in srgb, var(--fg) 30%, var(--bg)));
    --_arrow:         var(--accent, color-mix(in srgb, var(--fg) 50%, var(--bg)));
    --_node-fill:     var(--surface, color-mix(in srgb, var(--fg) 3%, var(--bg)));
    --_node-stroke:   var(--border, color-mix(in srgb, var(--fg) 20%, var(--bg)));
    --_group-fill:    var(--bg);
    --_group-hdr:     color-mix(in srgb, var(--fg) 5%, var(--bg));
    --_inner-stroke:  color-mix(in srgb, var(--fg) 12%, var(--bg));
    --_key-badge:     color-mix(in srgb, var(--fg) 10%, var(--bg));
  }
</style>
<defs>
  <marker id="arrowhead" markerWidth="8" markerHeight="4.8" refX="8" refY="2.4" orient="auto">
    <polygon points="0 0, 8 2.4, 0 4.8" fill="var(--_arrow)" />
  </marker>
  <marker id="arrowhead-start" markerWidth="8" markerHeight="4.8" refX="0" refY="2.4" orient="auto-start-reverse">
    <polygon points="8 0, 0 2.4, 8 4.8" fill="var(--_arrow)" />
  </marker>
</defs>
<rect x="40" y="40" width="843.4375" height="399" rx="0" ry="0" fill="var(--_group-fill)" stroke="var(--_node-stroke)" stroke-width="1" />
<rect x="40" y="40" width="843.4375" height="28" rx="0" ry="0" fill="var(--_group-hdr)" stroke="var(--_node-stroke)" stroke-width="1" />
<text x="52" y="54" dy="0.35em" font-size="12" font-weight="600" fill="var(--_text-sec)">&quot;Container - Application Lifetime&quot;</text>
<rect x="66.0875" y="307" width="346.4375" height="112" rx="0" ry="0" fill="var(--_group-fill)" stroke="var(--_node-stroke)" stroke-width="1" />
<rect x="66.0875" y="307" width="346.4375" height="28" rx="0" ry="0" fill="var(--_group-hdr)" stroke="var(--_node-stroke)" stroke-width="1" />
<text x="78.0875" y="321" dy="0.35em" font-size="12" font-weight="600" fill="var(--_text-sec)">&quot;Scope 1 - Request A&quot;</text>
<rect x="432.5250000000001" y="307" width="430.91249999999997" height="112" rx="0" ry="0" fill="var(--_group-fill)" stroke="var(--_node-stroke)" stroke-width="1" />
<rect x="432.5250000000001" y="307" width="430.91249999999997" height="28" rx="0" ry="0" fill="var(--_group-hdr)" stroke="var(--_node-stroke)" stroke-width="1" />
<text x="444.5250000000001" y="321" dy="0.35em" font-size="12" font-weight="600" fill="var(--_text-sec)">&quot;Scope 2 - Request B&quot;</text>
<polyline points="313.36250000000007,163 313.36250000000007,183 133.6875,183 133.6875,381 88.08750000000002,381" fill="none" stroke="var(--_line)" stroke-width="0.75" marker-end="url(#arrowhead)" />
<polyline points="313.36250000000007,163 313.36250000000007,183 500.12500000000006,183 500.12500000000006,381 546.0875000000001,381" fill="none" stroke="var(--_line)" stroke-width="0.75" marker-end="url(#arrowhead)" />
<polyline points="551.6875,163 551.6875,183 280.45000000000005,183 280.45000000000005,381 234.4875,381" fill="none" stroke="var(--_line)" stroke-width="0.75" marker-end="url(#arrowhead)" />
<polyline points="551.6875,163 551.6875,183 731.3625000000002,183 731.3625000000002,381 692.4875000000002,381" fill="none" stroke="var(--_line)" stroke-width="0.75" marker-end="url(#arrowhead)" />
<rect x="207.98750000000007" y="123" width="210.75000000000003" height="33" fill="#89b4fa" stroke="none" />
<line x1="207.98750000000007" y1="123" x2="207.98750000000007" y2="156" stroke="var(--_node-stroke)" stroke-width="0.75" />
<line x1="418.73750000000007" y1="123" x2="418.73750000000007" y2="156" stroke="var(--_node-stroke)" stroke-width="0.75" />
<ellipse cx="313.36250000000007" cy="156" rx="105.37500000000001" ry="7" fill="#89b4fa" stroke="var(--_node-stroke)" stroke-width="0.75" />
<ellipse cx="313.36250000000007" cy="123" rx="105.37500000000001" ry="7" fill="#89b4fa" stroke="var(--_node-stroke)" stroke-width="0.75" />
<rect x="442.7375" y="123" width="217.9" height="33" fill="#89b4fa" stroke="none" />
<line x1="442.7375" y1="123" x2="442.7375" y2="156" stroke="var(--_node-stroke)" stroke-width="0.75" />
<line x1="660.6375" y1="123" x2="660.6375" y2="156" stroke="var(--_node-stroke)" stroke-width="0.75" />
<ellipse cx="551.6875" cy="156" rx="108.95" ry="7" fill="#89b4fa" stroke="var(--_node-stroke)" stroke-width="0.75" />
<ellipse cx="551.6875" cy="123" rx="108.95" ry="7" fill="#89b4fa" stroke="var(--_node-stroke)" stroke-width="0.75" />
<rect x="88.08750000000002" y="363" width="146.4" height="36" rx="0" ry="0" fill="#fab387" stroke="var(--_node-stroke)" stroke-width="0.75" />
<rect x="546.0875000000001" y="363" width="146.4" height="36" rx="0" ry="0" fill="#fab387" stroke="var(--_node-stroke)" stroke-width="0.75" />
<rect x="265.575" y="363" width="124.95" height="36" rx="0" ry="0" fill="#fab387" stroke="var(--_node-stroke)" stroke-width="0.75" />
<rect x="716.4875000000001" y="363" width="124.95" height="36" rx="0" ry="0" fill="#fab387" stroke="var(--_node-stroke)" stroke-width="0.75" />
<text x="313.36250000000007" y="139.5" text-anchor="middle" dy="0.35em" font-size="13" font-weight="500" fill="var(--_text)">&quot;UserService - singleton&quot;</text>
<text x="551.6875" y="139.5" text-anchor="middle" dy="0.35em" font-size="13" font-weight="500" fill="var(--_text)">&quot;EmailService - singleton&quot;</text>
<text x="161.28750000000002" y="381" text-anchor="middle" dy="0.35em" font-size="13" font-weight="500" fill="var(--_text)">&quot;RequestContext&quot;</text>
<text x="619.2875000000001" y="381" text-anchor="middle" dy="0.35em" font-size="13" font-weight="500" fill="var(--_text)">&quot;RequestContext&quot;</text>
<text x="328.05" y="381" text-anchor="middle" dy="0.35em" font-size="13" font-weight="500" fill="var(--_text)">&quot;AuditLogger&quot;</text>
<text x="778.9625000000001" y="381" text-anchor="middle" dy="0.35em" font-size="13" font-weight="500" fill="var(--_text)">&quot;AuditLogger&quot;</text>
</svg>
