<svg xmlns="http://www.w3.org/2000/svg" viewBox="0 0 1810.8000000000002 501" width="1810.8000000000002" height="501" style="--bg:#1e1e2e;--fg:#cdd6f4;--line:#89b4fa;--accent:#89b4fa;--muted:#a6adc8;--surface:#313244;--border:#f5c2e7;background:var(--bg)">
<style>
  @import url('https://fonts.googleapis.com/css2?family=Inter:wght@400;500;600;700&amp;display=swap');
  text { font-family: 'Inter', system-ui, sans-serif; }
  svg {
    /* Derived from --bg and --fg (overridable via --line, --accent, etc.) */
    --_text:          var(--fg);
    --_text-sec:      var(--muted, color-mix(in srgb, var(--fg) 60%, var(--bg)));
    --_text-muted:    var(--muted, color-mix(in srgb, var(--fg) 40%, var(--bg)));
    --_text-faint:    color-mix(in srgb, var(--fg) 25%, var(--bg));
    --_line:          var(--line, color-mix(in srgb, var(--fg) 30%, var(--bg)));
    --_arrow:         var(--accent, color-mix(in srgb, var(--fg) 50%, var(--bg)));
    --_node-fill:     var(--surface, color-mix(in srgb, var(--fg) 3%, var(--bg)));
    --_node-stroke:   var(--border, color-mix(in srgb, var(--fg) 20%, var(--bg)));
    --_group-fill:    var(--bg);
    --_group-hdr:     color-mix(in srgb, var(--fg) 5%, var(--bg));
    --_inner-stroke:  color-mix(in srgb, var(--fg) 12%, var(--bg));
    --_key-badge:     color-mix(in srgb, var(--fg) 10%, var(--bg));
  }
</style>
<defs>
  <marker id="arrowhead" markerWidth="8" markerHeight="4.8" refX="8" refY="2.4" orient="auto">
    <polygon points="0 0, 8 2.4, 0 4.8" fill="var(--_arrow)" />
  </marker>
  <marker id="arrowhead-start" markerWidth="8" markerHeight="4.8" refX="0" refY="2.4" orient="auto-start-reverse">
    <polygon points="8 0, 0 2.4, 8 4.8" fill="var(--_arrow)" />
  </marker>
</defs>
<rect x="40" y="56" width="488.30000000000007" height="152" rx="0" ry="0" fill="var(--_group-fill)" stroke="var(--_node-stroke)" stroke-width="1" />
<rect x="40" y="56" width="488.30000000000007" height="28" rx="0" ry="0" fill="var(--_group-hdr)" stroke="var(--_node-stroke)" stroke-width="1" />
<text x="52" y="70" dy="0.35em" font-size="12" font-weight="600" fill="var(--_text-sec)">&quot;Core Domain (@service)&quot;</text>
<rect x="379.375" y="309" width="1289.0750000000003" height="152" rx="0" ry="0" fill="var(--_group-fill)" stroke="var(--_node-stroke)" stroke-width="1" />
<rect x="379.375" y="309" width="1289.0750000000003" height="28" rx="0" ry="0" fill="var(--_group-hdr)" stroke="var(--_node-stroke)" stroke-width="1" />
<text x="391.375" y="323" dy="0.35em" font-size="12" font-weight="600" fill="var(--_text-sec)">&quot;Ports Layer (Protocol)&quot;</text>
<rect x="548.3000000000002" y="40" width="1222.5" height="168" rx="0" ry="0" fill="var(--_group-fill)" stroke="var(--_node-stroke)" stroke-width="1" />
<rect x="548.3000000000002" y="40" width="1222.5" height="28" rx="0" ry="0" fill="var(--_group-hdr)" stroke="var(--_node-stroke)" stroke-width="1" />
<text x="560.3000000000002" y="54" dy="0.35em" font-size="12" font-weight="600" fill="var(--_text-sec)">&quot;Adapters Layer (@adapter.for_)&quot;</text>
<rect x="568.3000000000001" y="76" width="602.7" height="112" rx="0" ry="0" fill="var(--_group-fill)" stroke="var(--_node-stroke)" stroke-width="1" />
<rect x="568.3000000000001" y="76" width="602.7" height="28" rx="0" ry="0" fill="var(--_group-hdr)" stroke="var(--_node-stroke)" stroke-width="1" />
<text x="580.3000000000001" y="90" dy="0.35em" font-size="12" font-weight="600" fill="var(--_text-sec)">&quot;Production&quot;</text>
<rect x="1191" y="76" width="559.8" height="112" rx="0" ry="0" fill="var(--_group-fill)" stroke="var(--_node-stroke)" stroke-width="1" />
<rect x="1191" y="76" width="559.8" height="28" rx="0" ry="0" fill="var(--_group-hdr)" stroke="var(--_node-stroke)" stroke-width="1" />
<text x="1203" y="90" dy="0.35em" font-size="12" font-weight="600" fill="var(--_text-sec)">&quot;Test&quot;</text>
<polyline points="447.40000000000003,168 447.40000000000003,403 1001.7500000000002,403" fill="none" stroke="var(--_line)" stroke-width="0.75" marker-end="url(#arrowhead)" />
<polyline points="1075.8000000000002,168 1075.8000000000002,385" fill="none" stroke="var(--_line)" stroke-width="0.75" marker-end="url(#arrowhead)" />
<polyline points="1648.4500000000003,168 1648.4500000000003,403 1149.8500000000001,403" fill="none" stroke="var(--_line)" stroke-width="0.75" marker-end="url(#arrowhead)" />
<rect x="405.08000000000004" y="263" width="84.64" height="27" rx="4" ry="4" fill="var(--bg)" stroke="var(--_inner-stroke)" stroke-width="0.5" />
<text x="447.40000000000003" y="276.5" text-anchor="middle" dy="0.35em" font-size="11" font-weight="400" fill="var(--_text-muted)">&quot;depends on&quot;</text>
<rect x="1033.4800000000002" y="263" width="84.64" height="27" rx="4" ry="4" fill="var(--bg)" stroke="var(--_inner-stroke)" stroke-width="0.5" />
<text x="1075.8000000000002" y="276.5" text-anchor="middle" dy="0.35em" font-size="11" font-weight="400" fill="var(--_text-muted)">&quot;implements&quot;</text>
<rect x="1606.1300000000003" y="263" width="84.64" height="27" rx="4" ry="4" fill="var(--bg)" stroke="var(--_inner-stroke)" stroke-width="0.5" />
<text x="1648.4500000000003" y="276.5" text-anchor="middle" dy="0.35em" font-size="11" font-weight="400" fill="var(--_text-muted)">&quot;implements&quot;</text>
<rect x="62.000000000000014" y="132" width="110.65" height="36" rx="0" ry="0" fill="var(--_node-fill)" stroke="var(--_node-stroke)" stroke-width="0.75" />
<rect x="196.65000000000003" y="132" width="167.85000000000002" height="36" rx="0" ry="0" fill="var(--_node-fill)" stroke="var(--_node-stroke)" stroke-width="0.75" />
<rect x="388.5" y="132" width="117.80000000000001" height="36" rx="0" ry="0" fill="var(--_node-fill)" stroke="var(--_node-stroke)" stroke-width="0.75" />
<polygon points="1010.7500000000002,385 1140.8500000000004,385 1149.8500000000004,403 1140.8500000000004,421 1010.7500000000002,421 1001.7500000000002,403" fill="var(--_node-fill)" stroke="var(--_node-stroke)" stroke-width="0.75" />
<polygon points="1392.45,385 1486.8,385 1495.8,403 1486.8,421 1392.45,421 1383.45,403" fill="var(--_node-fill)" stroke="var(--_node-stroke)" stroke-width="0.75" />
<polygon points="1528.8,385 1637.45,385 1646.45,403 1637.45,421 1528.8,421 1519.8,403" fill="var(--_node-fill)" stroke="var(--_node-stroke)" stroke-width="0.75" />
<rect x="590.3000000000002" y="132" width="189.3" height="36" rx="0" ry="0" fill="var(--_node-fill)" stroke="var(--_node-stroke)" stroke-width="0.75" />
<rect x="803.6" y="132" width="175" height="36" rx="0" ry="0" fill="var(--_node-fill)" stroke="var(--_node-stroke)" stroke-width="0.75" />
<rect x="1002.6000000000001" y="132" width="146.4" height="36" rx="0" ry="0" fill="var(--_node-fill)" stroke="var(--_node-stroke)" stroke-width="0.75" />
<rect x="1213.0000000000005" y="132" width="160.70000000000002" height="36" rx="0" ry="0" fill="var(--_node-fill)" stroke="var(--_node-stroke)" stroke-width="0.75" />
<rect x="1397.7" y="132" width="146.4" height="36" rx="0" ry="0" fill="var(--_node-fill)" stroke="var(--_node-stroke)" stroke-width="0.75" />
<rect x="1568.1000000000004" y="132" width="160.70000000000002" height="36" rx="0" ry="0" fill="var(--_node-fill)" stroke="var(--_node-stroke)" stroke-width="0.75" />
<text x="117.32500000000002" y="150" text-anchor="middle" dy="0.35em" font-size="13" font-weight="500" fill="var(--_text)">UserService</text>
<text x="280.57500000000005" y="150" text-anchor="middle" dy="0.35em" font-size="13" font-weight="500" fill="var(--_text)">NotificationService</text>
<text x="447.4" y="150" text-anchor="middle" dy="0.35em" font-size="13" font-weight="500" fill="var(--_text)">OrderService</text>
<text x="1075.8000000000002" y="403" text-anchor="middle" dy="0.35em" font-size="13" font-weight="500" fill="var(--_text)">UserRepository</text>
<text x="1439.625" y="403" text-anchor="middle" dy="0.35em" font-size="13" font-weight="500" fill="var(--_text)">EmailPort</text>
<text x="1583.125" y="403" text-anchor="middle" dy="0.35em" font-size="13" font-weight="500" fill="var(--_text)">StoragePort</text>
<text x="684.9500000000002" y="150" text-anchor="middle" dy="0.35em" font-size="13" font-weight="500" fill="var(--_text)">PostgresUserRepository</text>
<text x="891.1" y="150" text-anchor="middle" dy="0.35em" font-size="13" font-weight="500" fill="var(--_text)">SendGridEmailAdapter</text>
<text x="1075.8000000000002" y="150" text-anchor="middle" dy="0.35em" font-size="13" font-weight="500" fill="var(--_text)">S3StorageAdapter</text>
<text x="1293.3500000000004" y="150" text-anchor="middle" dy="0.35em" font-size="13" font-weight="500" fill="var(--_text)">FakeUserRepository</text>
<text x="1470.9" y="150" text-anchor="middle" dy="0.35em" font-size="13" font-weight="500" fill="var(--_text)">FakeEmailAdapter</text>
<text x="1648.4500000000003" y="150" text-anchor="middle" dy="0.35em" font-size="13" font-weight="500" fill="var(--_text)">FakeStorageAdapter</text>
</svg>
