<svg xmlns="http://www.w3.org/2000/svg" viewBox="0 0 1068.8 1000" width="1068.8" height="1000" style="--bg:#1e1e2e;--fg:#cdd6f4;--line:#89b4fa;--accent:#89b4fa;--muted:#a6adc8;--surface:#313244;--border:#f5c2e7;background:var(--bg)">
<style>
  @import url('https://fonts.googleapis.com/css2?family=Inter:wght@400;500;600;700&amp;display=swap');
  text { font-family: 'Inter', system-ui, sans-serif; }
  svg {
    /* Derived from --bg and --fg (overridable via --line, --accent, etc.) */
    --_text:          var(--fg);
    --_text-sec:      var(--muted, color-mix(in srgb, var(--fg) 60%, var(--bg)));
    --_text-muted:    var(--muted, color-mix(in srgb, var(--fg) 40%, var(--bg)));
    --_text-faint:    color-mix(in srgb, var(--fg) 25%, var(--bg));
    --_line:          var(--line, color-mix(in srgb, var(--fg) 30%, var(--bg)));
    --_arrow:         var(--accent, color-mix(in srgb, var(--fg) 50%, var(--bg)));
    --_node-fill:     var(--surface, color-mix(in srgb, var(--fg) 3%, var(--bg)));
    --_node-stroke:   var(--border, color-mix(in srgb, var(--fg) 20%, var(--bg)));
    --_group-fill:    var(--bg);
    --_group-hdr:     color-mix(in srgb, var(--fg) 5%, var(--bg));
    --_inner-stroke:  color-mix(in srgb, var(--fg) 12%, var(--bg));
    --_key-badge:     color-mix(in srgb, var(--fg) 10%, var(--bg));
  }
</style>
<defs>
  <marker id="arrowhead" markerWidth="8" markerHeight="4.8" refX="8" refY="2.4" orient="auto">
    <polygon points="0 0, 8 2.4, 0 4.8" fill="var(--_arrow)" />
  </marker>
  <marker id="arrowhead-start" markerWidth="8" markerHeight="4.8" refX="0" refY="2.4" orient="auto-start-reverse">
    <polygon points="8 0, 0 2.4, 8 4.8" fill="var(--_arrow)" />
  </marker>
</defs>
<rect x="480.95000000000005" y="40" width="99.75" height="276" rx="0" ry="0" fill="var(--_group-fill)" stroke="var(--_node-stroke)" stroke-width="1" />
<rect x="480.95000000000005" y="40" width="99.75" height="28" rx="0" ry="0" fill="var(--_group-hdr)" stroke="var(--_node-stroke)" stroke-width="1" />
<text x="492.95000000000005" y="54" dy="0.35em" font-size="12" font-weight="600" fill="var(--_text-sec)">&quot;Adapter Registration (Decoration Time)&quot;</text>
<rect x="171.4249999999999" y="380" width="696.3750000000001" height="112" rx="0" ry="0" fill="var(--_group-fill)" stroke="var(--_node-stroke)" stroke-width="1" />
<rect x="171.4249999999999" y="380" width="696.3750000000001" height="28" rx="0" ry="0" fill="var(--_group-hdr)" stroke="var(--_node-stroke)" stroke-width="1" />
<text x="183.4249999999999" y="394" dy="0.35em" font-size="12" font-weight="600" fill="var(--_text-sec)">&quot;Global Registry&quot;</text>
<rect x="40" y="536" width="988.8" height="112" rx="0" ry="0" fill="var(--_group-fill)" stroke="var(--_node-stroke)" stroke-width="1" />
<rect x="40" y="536" width="988.8" height="28" rx="0" ry="0" fill="var(--_group-hdr)" stroke="var(--_node-stroke)" stroke-width="1" />
<text x="52" y="550" dy="0.35em" font-size="12" font-weight="600" fill="var(--_text-sec)">&quot;Container Creation (Auto-Scans)&quot;</text>
<rect x="72.17500000000001" y="692" width="935.1750000000001" height="112" rx="0" ry="0" fill="var(--_group-fill)" stroke="var(--_node-stroke)" stroke-width="1" />
<rect x="72.17500000000001" y="692" width="935.1750000000001" height="28" rx="0" ry="0" fill="var(--_group-hdr)" stroke="var(--_node-stroke)" stroke-width="1" />
<text x="84.17500000000001" y="706" dy="0.35em" font-size="12" font-weight="600" fill="var(--_text-sec)">&quot;Active Adapters&quot;</text>
<rect x="171.4249999999999" y="848" width="696.3750000000001" height="112" rx="0" ry="0" fill="var(--_group-fill)" stroke="var(--_node-stroke)" stroke-width="1" />
<rect x="171.4249999999999" y="848" width="696.3750000000001" height="28" rx="0" ry="0" fill="var(--_group-hdr)" stroke="var(--_node-stroke)" stroke-width="1" />
<text x="183.4249999999999" y="862" dy="0.35em" font-size="12" font-weight="600" fill="var(--_text-sec)">&quot;Resolution&quot;</text>
<polyline points="530.825,286 530.825,436" fill="none" stroke="var(--_line)" stroke-width="0.75" marker-end="url(#arrowhead)" />
<polyline points="530.825,472 530.825,492 217.42499999999995,492 217.42499999999995,592" fill="none" stroke="var(--_line)" stroke-width="0.75" marker-end="url(#arrowhead)" />
<polyline points="530.825,472 530.825,592" fill="none" stroke="var(--_line)" stroke-width="0.75" marker-end="url(#arrowhead)" />
<polyline points="530.825,472 530.825,492 847.8,492 847.8,592" fill="none" stroke="var(--_line)" stroke-width="0.75" marker-end="url(#arrowhead)" />
<polyline points="217.42499999999995,628 217.42499999999995,748" fill="none" stroke="var(--_line)" stroke-width="0.75" marker-end="url(#arrowhead)" />
<polyline points="530.825,628 530.825,748" fill="none" stroke="var(--_line)" stroke-width="0.75" marker-end="url(#arrowhead)" />
<polyline points="847.8,628 847.8,748" fill="none" stroke="var(--_line)" stroke-width="0.75" marker-end="url(#arrowhead)" />
<polyline points="217.42499999999995,784 217.42499999999995,922 463.15,922" fill="none" stroke="var(--_line)" stroke-width="0.75" marker-end="url(#arrowhead)" />
<polyline points="530.825,784 530.825,922 523.15,922" fill="none" stroke="var(--_line)" stroke-width="0.75" marker-end="url(#arrowhead)" />
<polyline points="847.8,784 847.8,922 523.15,922" fill="none" stroke="var(--_line)" stroke-width="0.75" marker-end="url(#arrowhead)" />
<rect x="500.82500000000005" y="436" width="60" height="36" rx="0" ry="0" fill="var(--_node-fill)" stroke="var(--_node-stroke)" stroke-width="0.75" />
<rect x="665.45" y="436" width="96.35000000000001" height="36" rx="0" ry="0" fill="var(--_node-fill)" stroke="var(--_node-stroke)" stroke-width="0.75" />
<rect x="785.8000000000001" y="436" width="60" height="36" rx="0" ry="0" fill="var(--_node-fill)" stroke="var(--_node-stroke)" stroke-width="0.75" />
<rect x="61.99999999999994" y="592" width="310.85" height="36" rx="0" ry="0" fill="var(--_node-fill)" stroke="var(--_node-stroke)" stroke-width="0.75" />
<rect x="396.85" y="592" width="267.95000000000005" height="36" rx="0" ry="0" fill="var(--_node-fill)" stroke="var(--_node-stroke)" stroke-width="0.75" />
<rect x="688.8" y="592" width="318" height="36" rx="0" ry="0" fill="var(--_node-fill)" stroke="var(--_node-stroke)" stroke-width="0.75" />
<rect x="94.17499999999994" y="748" width="246.50000000000003" height="36" rx="0" ry="0" fill="var(--_node-fill)" stroke="var(--_node-stroke)" stroke-width="0.75" />
<rect x="404.00000000000006" y="748" width="253.65" height="36" rx="0" ry="0" fill="var(--_node-fill)" stroke="var(--_node-stroke)" stroke-width="0.75" />
<rect x="710.25" y="748" width="275.1" height="36" rx="0" ry="0" fill="var(--_node-fill)" stroke="var(--_node-stroke)" stroke-width="0.75" />
<rect x="463.15" y="904" width="60" height="36" rx="0" ry="0" fill="var(--_node-fill)" stroke="var(--_node-stroke)" stroke-width="0.75" />
<rect x="763.7500000000001" y="904" width="82.05000000000001" height="36" rx="0" ry="0" fill="var(--_node-fill)" stroke="var(--_node-stroke)" stroke-width="0.75" />
<rect x="500.82500000000005" y="88" width="60" height="36" rx="0" ry="0" fill="var(--_node-fill)" stroke="var(--_node-stroke)" stroke-width="0.75" />
<rect x="496.95000000000005" y="148" width="67.75" height="36" rx="0" ry="0" fill="var(--_node-fill)" stroke="var(--_node-stroke)" stroke-width="0.75" />
<rect x="500.82500000000005" y="208" width="60" height="36" rx="0" ry="0" fill="var(--_node-fill)" stroke="var(--_node-stroke)" stroke-width="0.75" />
<rect x="500.82500000000005" y="268" width="60" height="36" rx="0" ry="0" fill="var(--_node-fill)" stroke="var(--_node-stroke)" stroke-width="0.75" />
<text x="530.825" y="454" text-anchor="middle" dy="0.35em" font-size="13" font-weight="500" fill="var(--_text)">REG</text>
<text x="713.625" y="454" text-anchor="middle" dy="0.35em" font-size="13" font-weight="500" fill="var(--_text)">EmailPort</text>
<text x="815.8000000000001" y="454" text-anchor="middle" dy="0.35em" font-size="13" font-weight="500" fill="var(--_text)">-</text>
<text x="217.42499999999995" y="610" text-anchor="middle" dy="0.35em" font-size="13" font-weight="500" fill="var(--_text)">&quot;Container(profile=Profile.PRODUCTION)&quot;</text>
<text x="530.825" y="610" text-anchor="middle" dy="0.35em" font-size="13" font-weight="500" fill="var(--_text)">&quot;Container(profile=Profile.TEST)&quot;</text>
<text x="847.8" y="610" text-anchor="middle" dy="0.35em" font-size="13" font-weight="500" fill="var(--_text)">&quot;Container(profile=Profile.DEVELOPMENT)&quot;</text>
<text x="217.42499999999995" y="766" text-anchor="middle" dy="0.35em" font-size="13" font-weight="500" fill="var(--_text)">&quot;EmailPort -&gt; SendGridAdapter&quot;</text>
<text x="530.825" y="766" text-anchor="middle" dy="0.35em" font-size="13" font-weight="500" fill="var(--_text)">&quot;EmailPort -&gt; FakeEmailAdapter&quot;</text>
<text x="847.8" y="766" text-anchor="middle" dy="0.35em" font-size="13" font-weight="500" fill="var(--_text)">&quot;EmailPort -&gt; ConsoleEmailAdapter&quot;</text>
<text x="493.15" y="922" text-anchor="middle" dy="0.35em" font-size="13" font-weight="500" fill="var(--_text)">RES</text>
<text x="804.7750000000001" y="922" text-anchor="middle" dy="0.35em" font-size="13" font-weight="500" fill="var(--_text)">Returns</text>
<text x="530.825" y="106" text-anchor="middle" dy="0.35em" font-size="13" font-weight="500" fill="var(--_text)">A1</text>
<text x="530.825" y="166" text-anchor="middle" dy="0.35em" font-size="13" font-weight="500" fill="var(--_text)">class</text>
<text x="530.825" y="226" text-anchor="middle" dy="0.35em" font-size="13" font-weight="500" fill="var(--_text)">A2</text>
<text x="530.825" y="286" text-anchor="middle" dy="0.35em" font-size="13" font-weight="500" fill="var(--_text)">A3</text>
</svg>
